<?xml version="1.0" encoding="utf-8"?>
<!-- Generator: Adobe Illustrator 16.0.0, SVG Export Plug-In . SVG Version: 6.00 Build 0)  -->
<!DOCTYPE svg PUBLIC "-//W3C//DTD SVG 1.1//EN" "http://www.w3.org/Graphics/SVG/1.1/DTD/svg11.dtd">
<svg version="1.1" xmlns="http://www.w3.org/2000/svg" xmlns:xlink="http://www.w3.org/1999/xlink" x="0px" y="0px" width="720px"
	 height="720px" viewBox="0 0 720 720" enable-background="new 0 0 720 720" xml:space="preserve">
<g id="Layer_1">
	<g>
		<path fill="#F8EB6C" d="M407.778,118.758c-4.311-28.9,3.454-57.375,21.438-80.341c-3.957-1.423-7.915-2.848-11.875-4.27
			c-0.023,27.882-6.72,54.815-20.343,79.191c3.958,1.424,7.918,2.848,11.874,4.27c0.901-23.798,6.519-46.464,16.737-67.965
			c3.611-7.601-8.729-11.979-12.315-4.429c-10.687,22.489-16.534,46.523-17.477,71.399c-0.223,5.908,8.516,10.279,11.877,4.27
			c14.781-26.443,22.674-55.401,22.699-85.739c0.005-6.456-7.77-9.52-11.877-4.271c-20.123,25.701-28.414,58.041-23.61,90.278
			C396.151,129.484,409.02,127.096,407.778,118.758L407.778,118.758z"/>
		<path fill="#FFCA1B" d="M485.092,141.422c8.982-36.558,30.404-67.773,61.324-89.261c-3.451-2.411-6.903-4.823-10.355-7.233
			c-12.668,32.774-32.088,62.057-57.461,86.377c3.453,2.411,6.903,4.822,10.357,7.233c8.018-24.604,21.837-46.04,41.102-63.339
			c6.266-5.626-2.123-15.676-8.399-10.04c-20.932,18.799-36.293,42.186-45.017,68.95c-1.896,5.812,5.441,11.943,10.355,7.234
			c27.067-25.945,47.854-57.007,61.378-91.988c2.51-6.495-5.354-10.71-10.356-7.233c-32.543,22.616-55.785,56.382-65.242,94.87
			C470.789,145.09,483.085,149.606,485.092,141.422L485.092,141.422z"/>
		<path fill="#FFCA1B" d="M332.733,118.87c-8.427-30.192-9.601-61.147-3.53-91.896c-4.32,0.232-8.64,0.464-12.961,0.697
			c5.666,30.653,7.33,61.576,4.987,92.661c-0.632,8.388,12.418,9.42,13.054,0.997c2.42-32.159,0.688-64.336-5.172-96.049
			c-1.439-7.787-11.599-6.206-12.961,0.697c-6.26,31.72-4.979,64.146,3.715,95.284C322.112,129.307,335.005,127.005,332.733,118.87
			L332.733,118.87z"/>
		<path fill="#F8EB6C" d="M262.398,132.388c-11.6-11.767-19.2-25.997-22.244-42.256c-3.82,1.799-7.637,3.597-11.455,5.396
			c12.829,11.89,21.184,26.817,24.21,44.078c1.454,8.294,14.328,5.924,12.87-2.392c-3.376-19.25-12.685-36.781-27.039-50.085
			c-4.479-4.149-12.777-1.652-11.456,5.396c3.427,18.304,11.987,34.987,25.074,48.26
			C258.244,146.756,268.315,138.389,262.398,132.388L262.398,132.388z"/>
		<path fill="#F8EB6C" d="M552.323,197.264c16.035-24.423,40.779-40.769,69.566-45.822c-2.181-3.403-4.366-6.803-6.547-10.207
			c-18.629,20.803-42.137,35.891-68.511,44.889c2.328,3.646,4.658,7.292,6.988,10.938c16.543-17.147,35.843-30.39,57.84-39.565
			c7.791-3.248,2.187-15.075-5.578-11.839c-22.928,9.563-43.41,23.484-60.661,41.367c-5.257,5.445-0.175,13.381,6.985,10.938
			c28.653-9.773,53.475-26.67,73.635-49.184c3.995-4.463-1.395-11.11-6.543-10.207c-31.987,5.612-60.043,23.991-77.872,51.146
			C537.006,196.755,547.697,204.313,552.323,197.264L552.323,197.264z"/>
		<path fill="#FFCA1B" d="M587.709,271.371c26.781-16.256,56.332-25.762,87.566-28.171c-1.329-4.118-2.654-8.236-3.983-12.354
			c-27.993,13.717-57.341,23.675-87.911,29.781c-8.25,1.648-5.895,14.525,2.394,12.869c31.611-6.314,62.142-16.624,91.093-30.811
			c7.039-3.448,3.156-12.903-3.982-12.354c-32.209,2.485-63.137,12.438-90.751,29.202
			C574.996,263.865,580.505,275.746,587.709,271.371L587.709,271.371z"/>
		<path fill="#F8EB6C" d="M602.472,341.642c15.382-6.276,31.315-7.477,47.554-4.208c-0.764-4.149-1.525-8.298-2.287-12.446
			c-15.963,7.37-32.831,8.997-49.986,5.339c-8.201-1.748-9.14,11.315-0.998,13.054c19.229,4.101,38.738,1.674,56.559-6.554
			c6.477-2.989,3.677-11.246-2.288-12.446c-18.396-3.7-36.802-1.648-54.129,5.422C589.08,332.992,594.689,344.819,602.472,341.642
			L602.472,341.642z"/>
		<path fill="#FFCA1B" d="M118.521,116.681c35.104,11.115,64.981,34.203,84.003,65.823c2.713-2.981,5.424-5.964,8.134-8.947
			c-31.87-14.793-59.697-36.293-82.28-63.188c-2.412,3.452-4.823,6.903-7.233,10.356c24.035,9.625,44.381,25.009,60.367,45.355
			c5.22,6.64,15.236-1.785,10.041-8.4c-17.394-22.135-39.859-38.812-65.98-49.27c-6.109-2.446-11.313,5.498-7.232,10.357
			c24.124,28.731,53.878,51.317,87.894,67.107c4.951,2.298,10.995-4.186,8.133-8.947c-20.81-34.59-52.853-60.349-91.414-72.562
			C114.94,101.831,110.471,114.132,118.521,116.681L118.521,116.681z"/>
		<path fill="#F8EB6C" d="M456.946,577.092c18.956,22.257,27.579,50.625,24.356,79.659c4.145-0.764,8.297-1.526,12.445-2.289
			c-14.713-23.661-23.366-50.231-24.607-78.127c-4.149,0.764-8.297,1.528-12.447,2.292c11.823,20.696,19.073,42.942,21.707,66.629
			c0.932,8.371,13.799,5.957,12.869-2.389c-2.744-24.691-10.414-48.249-22.735-69.817c-2.857-5.003-12.767-4.892-12.446,2.291
			c1.342,30.192,9.832,58.98,25.819,84.697c3.331,5.356,11.675,4.665,12.448-2.289c3.584-32.288-6.315-64.337-27.371-89.057
			C461.516,562.271,451.48,570.675,456.946,577.092L456.946,577.092z"/>
		<path fill="#FFCA1B" d="M378.696,588.395c11.419,35.081,9.146,72.828-5.438,106.595c4.195,0.337,8.392,0.676,12.591,1.018
			c-6.521-34.505-5.563-69.665,3.161-103.7c-4.194-0.341-8.393-0.68-12.592-1.017c6.17,25.09,5.834,50.67-1.415,75.494
			c-2.353,8.05,9.948,12.533,12.313,4.431c7.883-27.002,8.694-54.98,1.972-82.319c-1.411-5.736-10.855-7.784-12.592-1.018
			c-9.313,36.325-10.686,73.649-3.716,110.519c1.254,6.648,10.088,6.813,12.592,1.02c16.056-37.163,17.46-78.206,4.963-116.6
			C387.931,574.821,376.119,580.477,378.696,588.395L378.696,588.395z"/>
		<path fill="#FFCA1B" d="M517.301,534.69c25.76,16.637,47.1,38.621,62.599,65.116c3.231-2.714,6.462-5.427,9.694-8.14
			c-24.559-19.194-46.254-41.315-65.099-66.137c-5.106-6.726-15.117,1.708-10.038,8.402c19.508,25.696,42.174,48.567,67.589,68.434
			c4.988,3.898,13.009-2.47,9.694-8.138c-16.646-28.452-39.184-52.337-66.896-70.239C517.78,519.425,510.218,530.113,517.301,534.69
			L517.301,534.69z"/>
		<path fill="#F8EB6C" d="M566.662,477.332c16.079,4.01,29.859,11.834,41.168,24.011c1.839-3.575,3.678-7.151,5.52-10.727
			c-16.49-3.328-30.817-11.73-42.086-24.154c-5.652-6.235-15.704,2.15-10.039,8.399c13.828,15.249,30.992,24.741,51.126,28.81
			c5.556,1.122,9.116-6.851,5.521-10.726c-12.814-13.802-28.474-23.361-46.782-27.929
			C562.997,462.997,558.484,475.291,566.662,477.332L566.662,477.332z"/>
		<path fill="#F8EB6C" d="M286.301,575.081c-0.798,29.154-12.981,56.038-34.73,75.549c3.575,1.843,7.151,3.681,10.727,5.52
			c4.895-27.494,16.752-52.576,34.395-74.173c-3.835-1.998-7.672-3.991-11.508-5.988c-5.033,23.266-14.368,44.675-28.186,64.074
			c-4.894,6.871,5.811,14.403,10.697,7.543c14.448-20.282,24.534-42.837,29.805-67.189c1.523-7.043-6.568-12.031-11.508-5.986
			c-19.188,23.489-31.439,50.902-36.748,80.726c-0.998,5.601,6.757,9.076,10.725,5.517c24.262-21.767,38.495-51.966,39.384-84.596
			C299.582,567.696,286.531,566.625,286.301,575.081L286.301,575.081z"/>
		<path fill="#FFCA1B" d="M700.06,412.777c-36.492,9.277-74.111,4.919-107.603-12.244c-0.34,4.198-0.68,8.396-1.021,12.591
			c34.889-4.243,69.851-0.75,103.244,10.194c0.339-4.197,0.676-8.395,1.016-12.593c-25.5,4.503-50.891,2.261-75.216-6.598
			c-7.914-2.881-12.352,9.432-4.428,12.314c26.439,9.629,54.33,12.046,82.035,7.152c6.295-1.109,7.23-10.558,1.02-12.593
			c-35.637-11.68-72.843-15.273-110.061-10.743c-7.195,0.871-6.159,9.957-1.02,12.592c35.28,18.081,76.016,22.56,114.422,12.795
			C710.568,423.581,708.252,410.695,700.06,412.777L700.06,412.777z"/>
		<path fill="#FFCA1B" d="M124.581,424.169c-26.453,16.778-55.801,26.894-86.986,29.919c1.328,4.119,2.657,8.235,3.985,12.355
			c27.715-14.261,56.854-24.827,87.297-31.535c8.205-1.808,5.865-14.688-2.392-12.868C95,428.976,64.674,439.849,36.004,454.604
			c-6.832,3.516-3.311,13.061,3.982,12.354c32.153-3.116,62.887-13.645,90.171-30.95
			C137.186,431.552,131.687,419.663,124.581,424.169L124.581,424.169z"/>
		<path fill="#F8EB6C" d="M119.112,350.315c-15.267,6.583-31.129,8.158-47.451,5.207c0.763,4.15,1.525,8.297,2.29,12.446
			c15.823-7.686,32.613-9.71,49.856-6.385c8.247,1.59,9.199-11.469,0.998-13.053c-19.287-3.719-38.784-0.976-56.432,7.596
			c-6.278,3.052-3.867,11.336,2.289,12.447c18.443,3.337,36.848,0.988,54.025-6.418
			C132.439,358.813,126.843,346.981,119.112,350.315L119.112,350.315z"/>
		<path fill="#F8EB6C" d="M152.252,214.047c-16.129-3.69-30.137-11.203-41.67-23.144c-1.839,3.575-3.678,7.15-5.519,10.726
			c16.544,3.003,31.071,11.02,42.594,23.234c5.766,6.113,15.827-2.265,10.041-8.398c-14.116-14.964-31.416-24.218-51.639-27.888
			c-5.466-0.994-9.269,6.839-5.515,10.725c13.09,13.553,28.861,22.848,47.277,27.059
			C155.931,228.215,160.456,215.923,152.252,214.047L152.252,214.047z"/>
		<path fill="#FFCA1B" d="M19.903,281.193c36.299-9.994,73.994-6.449,107.826,10.058c0.34-4.199,0.681-8.394,1.018-12.592
			c-34.795,4.927-69.82,2.193-103.425-8.094c-0.339,4.198-0.681,8.396-1.019,12.592c25.402-5.001,50.836-3.328,75.335,5.05
			c7.963,2.723,12.416-9.583,4.429-12.314c-26.62-9.104-54.548-11.04-82.156-5.605c-6.133,1.208-7.4,10.638-1.019,12.593
			c35.854,10.976,73.121,13.904,110.247,8.647c7.038-0.998,6.353-9.99,1.019-12.593c-35.621-17.381-76.441-21.13-114.648-10.613
			C9.453,270.54,11.758,283.435,19.903,281.193L19.903,281.193z"/>
		<path fill="#F8EB6C" d="M157.284,490.486c-9.726,13.43-22.579,22.99-38.095,28.762c2.712,3.229,5.425,6.462,8.138,9.689
			c9.643-14.661,23.063-25.084,39.563-31c7.932-2.845,2.293-14.664-5.579-11.84c-18.459,6.618-33.915,18.924-44.685,35.296
			c-3.754,5.713,2.125,11.929,8.14,9.692c17.529-6.517,32.259-17.926,43.215-33.056C172.932,491.197,162.22,483.667,157.284,490.486
			L157.284,490.486z"/>
		<path fill="#FFCA1B" d="M209.418,538.977c-13.894,27.325-33.987,50.479-58.659,68.593c3.183,2.933,6.365,5.859,9.548,8.792
			c16.547-26.401,36.172-50.388,58.911-71.699c6.135-5.75-2.245-15.807-8.397-10.04c-23.541,22.063-44.078,46.853-61.211,74.196
			c-3.986,6.356,3.522,13.218,9.547,8.79c26.662-19.575,47.605-44.758,62.575-74.204
			C225.539,535.918,213.188,531.556,209.418,538.977L209.418,538.977z"/>
		<path fill="#FCCC0A" d="M445.863,158.825c-106.93-43.903-287.69,6.037-293.551,201.435
			c-5.669,189.074,249.1,254.078,353.071,145.432C594.797,412.255,614.218,227.95,445.863,158.825z"/>
		<path fill="#040303" d="M253.906,328.885c-8.807,9.607-5.363,25.984,6.258,31.828c13.024,6.549,26.862-4.958,27.962-18.204
			c1.216-14.633-14.668-25.353-27.957-19.3c-12.569,5.726-12.835,24.996-0.442,31.202c14.741,7.378,29.457-14.334,17.273-25.264
			c-2.8-2.507-8.489-2.775-10.278,1.326c-2.699,6.179-2.101,12.579,2.882,17.438c2.761,2.692,6.43,2.203,9.255,0
			c4.454-3.473,6.165-9.863,4.091-15.109c-2.42-6.122-10.572-7.914-16.176-5.277c-11.328,5.332-3.722,23.568,7.748,22.055
			c3.532-0.467,6.504-2.674,6.545-6.544c0.032-3.178-3.04-7.005-6.545-6.544c-1.211,0.02-1.414,0.108-0.611,0.261
			c0.539,0.259,0.607,0.159,0.202-0.303c-1.471,1.589-2.71,2.287-0.776,3.739c-1.004-1.303-2.006-2.605-3.008-3.908
			c0.609,1.564,0.614,1.334-0.725,2.376c3.084,0,6.17,0,9.255,0c-0.307-0.299-1.105-0.962-0.837-1.58
			c-3.426,0.44-6.853,0.882-10.277,1.326c0.695,0.622,0.979,0.063,0.632,1.545c-0.159,0.683-0.713,2.148-1.468,2.502
			c-1.658,0.782-2.594-0.563-3.094-2.232c-2.013-6.721,7.464-7.025,10.393-2.692c2.838,4.203-1.177,12.67-6.627,12
			c-4.596-0.562-7.582-7.938-4.42-11.387C268.844,331.94,259.613,322.659,253.906,328.885L253.906,328.885z"/>
		<path fill="#040303" d="M462.77,324.955c-9.725-12.173-27.771-1.383-27.712,12.166c0.066,15.227,16.876,22.712,28.587,13.371
			c12.193-9.726,8.301-29.591-7.209-33.271c-13.844-3.284-24.605,13.07-17.005,24.785c9.624,14.834,33.567-1.729,23.841-15.853
			c-2.949-4.283-8.317-4.092-11.3,0c-4.552,6.246-5.677,14.302-3.288,21.62c2.597,7.972,15.24,4.56,12.618-3.478
			c-1.411-4.32-0.682-7.895,1.97-11.535c-3.765,0-7.533,0-11.3,0c0.826,1.198,0.606,0.082,0.13,0.765
			c-0.351,0.505-0.988,1.322-1.686,1.365c-0.201,0.011,0.15,0.314-0.201-0.294c-0.27-0.47-0.224-1.162-0.18-1.678
			c0.514-6.002,8.052-1.637,8.103,2.567c0.052,4.315-6.903,9.169-9.422,4.148c-1.651-3.292,1.558-9.48,4.798-5.424
			c2.223,2.781,6.928,2.275,9.256,0C465.525,331.509,464.962,327.7,462.77,324.955L462.77,324.955z"/>
		<path fill="#040303" d="M325.686,405.992c1.572,20.203,18.636,37.815,39.617,37.019c20.861-0.79,36.61-20.191,36.273-40.295
			c-0.071-4.209-6.614-4.221-6.544,0c0.278,16.627-12.399,32.834-29.729,33.751c-17.215,0.913-31.786-13.901-33.074-30.475
			C331.903,401.823,325.357,401.786,325.686,405.992L325.686,405.992z"/>
		<path fill="#F58A71" d="M224.502,401.447c-7.084,11.487-2.063,27.351,10.514,32.526c13.254,5.453,29.724-2.261,34.291-15.798
			c4.998-14.804-6.568-28.254-21.245-29.802c-14.849-1.563-29.494,9.956-27.63,25.677c1.648,13.893,16.73,22.207,29.531,17.441
			c12.864-4.787,21.373-23.43,7.096-32.004c-9.121-5.479-32.484-2.274-27.818,12.966c3.627,11.842,24.044,11.09,27.968-0.064
			c5.798-16.485-23.683-18.474-23.448-0.962c0.103,7.446,6.887,12.522,14.027,11.425c7.864-1.208,11.729-8.559,11.514-15.937
			c-0.139-4.881-6.254-7.733-9.828-4.074c-4.191,4.299-6.243,9.275-6.227,15.272c0.021,7.406,11.535,7.422,11.513,0
			c-0.006-3.071,0.696-4.916,2.855-7.129c-3.273-1.356-6.552-2.712-9.827-4.069c0.777,2.815-0.359,3.636-3.411,2.47
			c-2.455,0.675-3.182,0.54-2.179-0.402c0.672-2.043,6.342-0.886,7.653-0.131c7.958,4.593-1.847,12.553-7.427,12.627
			c-15.015,0.197-12.438-20.699,1.491-21.68c5.884-0.418,13.538,2.598,14.988,9.053c1.311,5.839-3.313,11.771-8.388,14.014
			c-10.115,4.474-22.782-4.725-16.071-15.605C238.344,400.934,228.389,395.145,224.502,401.447L224.502,401.447z"/>
		<path fill="#F58A71" d="M495.576,384.857c-18.513-4.628-35.027,16.512-22.039,32.383c13.051,15.945,37.392,3.649,41.546-13.795
			c2.033-8.552-1.457-17.568-9.582-21.392c-6.925-3.259-19.188-3.719-26.035,0.055c-16.974,9.352-10.733,37.325,6.352,42.351
			c16.987,5,33.896-13.099,23.729-29.187c-10.526-16.656-35.232-5.902-35.666,11.935c-0.509,20.911,31.514,12.547,30.833-4.93
			c-0.306-7.914-8.286-13.727-15.939-12.241c-7.95,1.546-12.027,10.269-9.379,17.661c2.939,8.206,13.888,10.881,19.784,4.258
			c5.039-5.662,8.025-18.86-2.539-20.302c-8.409-1.147-16.385,10.337-12.592,17.966c1.791,3.603,6.312,4.945,9.906,3.448
			c4.689-1.951,5.862-6.521,6.196-11.163c0.371-5.093-7.177-6.897-9.515-2.579c-2.97,5.489-2.973,10.925,0.021,16.406
			c3.148,5.771,11.974,0.623,8.818-5.156c-1.351-2.026-1.359-4.057-0.021-6.093c-3.172-0.858-6.343-1.72-9.517-2.578
			c0.261,0.464,0.524,0.93,0.788,1.394c1.016,0.782,2.034,1.563,3.055,2.349c-0.832-1.077,2.09-3.282-0.32-3.997
			c-0.049-0.013-1.709,3.751-2.49,3.813c-1.825,0.145-2.948-3.125-1.708-4.468c3.121-3.382,5.689,1.342,4.571,3.947
			c-1.269,2.961-8.023,6.649-9.771,3.267c-1.844-3.57,3.703-9.436,6.522-10.456c8.583-3.098,14.721,6.561,9.789,13.625
			c-5.152,7.377-16.342,3.309-19.371-3.724c-1.603-3.719-1.584-7.883-0.129-11.649c1.959-5.091,5.754-5.799,10.693-5.913
			c3.657-0.089,8.738-0.315,11.615,2.448c3.588,3.454,2.416,9.03,0.086,12.772c-4.232,6.797-14.234,13.311-21.245,6.173
			c-7.8-7.938,1.28-19.17,10.838-16.777C499.24,396.301,501.961,386.452,495.576,384.857L495.576,384.857z"/>
		<path fill="#F8EB6C" d="M275.739,257.035c-6.368,1.352-11.522,5.338-14.407,11.175c-1.031,2.09,0.184,5.055,2.825,4.924
			c7.69-0.38,15.173-2.597,21.523-7.029c4.016-2.798,9.935-8.558,5.802-13.741c-3.732-4.677-11.9-1.95-16.322,0.103
			c-6.041,2.801-10.875,7.625-13.82,13.577c-1.039,2.098,0.188,5.042,2.823,4.923c9.091-0.407,17.323-4.056,23.604-10.666
			c2.106-2.217,0.424-5.272-2.313-5.585c-5.517-0.631-10.486,1.263-14.406,5.14c-3.001,2.966,1.628,7.592,4.626,4.626
			c2.768-2.736,5.954-3.661,9.78-3.223c-0.773-1.861-1.544-3.723-2.314-5.585c-5.091,5.359-11.569,8.419-18.977,8.749
			c0.94,1.641,1.885,3.283,2.825,4.924c1.541-3.11,3.53-5.869,6.249-8.063c2.28-1.839,7.492-5.362,10.665-4.691
			c4.311,0.912-4.671,5.898-6.45,6.752c-4.195,2.018-8.659,3.017-13.295,3.246c0.942,1.642,1.885,3.282,2.825,4.924
			c2.182-4.417,5.689-7.15,10.496-8.17C281.598,262.472,279.855,256.163,275.739,257.035L275.739,257.035z"/>
		<path fill="#F8EB6C" d="M436.518,255.037c-4.184-1.265-8.301-1.708-12.659-1.296c-1.368,0.128-2.847,0.917-3.155,2.4
			c-2.309,11.182,13.118,15.635,21.372,17.202c3.828,0.727,9.106,1.691,10.721-3.013c1.485-4.321-2.065-8.247-5.122-10.766
			c-4.138-3.411-9.028-5.945-14.215-7.327c-3.904-1.041-11.127-2.849-13.457,1.846c-4.769,9.613,16.455,14.341,21.779,15.776
			c4.07,1.098,5.809-5.212,1.74-6.311c-5.32-1.434-10.183-3.813-15.377-5.496c-1.693-0.55-2.443-0.535-0.713-0.313
			c1.458,0.188,2.86,0.427,4.288,0.809c2.572,0.684,5.037,1.694,7.355,3.009c2.046,1.161,5.054,2.788,6.361,4.769
			c0.971,1.47,0.87,0.625,0.06,0.998c-0.839,0.385-3.349-0.637-4.176-0.837c-3.176-0.764-15.344-3.584-14.305-8.606
			c-1.052,0.801-2.104,1.603-3.157,2.403c3.79-0.358,7.263-0.042,10.921,1.062C438.818,262.567,440.543,256.252,436.518,255.037
			L436.518,255.037z"/>
		<g>
			<path fill="#FFFFFF" d="M263.666,340.316c-2.301,1.262-2.611,4.741-0.637,6.445c2.162,1.868,5.324,0.253,6.592-1.863
				c1.321-2.202,1.01-5.928-2.102-6.216c-2.681-0.246-5.104,2.365-4.407,5.006c0.49,1.864,3.382,1.074,2.89-0.798
				c-0.096-0.369,0.086-0.647,0.374-0.896c0.342-0.295,0.61-0.186,0.971-0.319c0.114-0.042-0.09-0.277-0.059-0.071
				c0.032,0.207,0.11,0.337,0.117,0.547c0.019,0.478-0.174,0.955-0.438,1.343c-0.308,0.459-1.271,1.411-1.933,1.041
				c-0.595-0.332-0.347-1.362,0.143-1.63C266.868,341.977,265.359,339.389,263.666,340.316L263.666,340.316z"/>
		</g>
		<g>
			<path fill="#FFFFFF" d="M448.286,335.857c0.076,1.436,0.152,2.872,0.229,4.307c0.036,0.729,0.656,1.605,1.498,1.498
				c1.79-0.231,3.377-1.181,4.151-2.869c0.431-0.924,0.563-1.791-0.047-2.661c-0.423-0.605-1.036-1.035-1.739-1.254
				c-2.736-0.851-5.842,1.394-5.299,4.317c0.355,1.892,3.245,1.09,2.895-0.797c-0.003-0.018,0.07-0.183,0.07-0.183
				c0.222-0.271,0.388-0.332,0.694-0.43c0.626-0.203,0.864-0.097,1.047,0.293c-0.048-0.385-0.099-0.77-0.149-1.155
				c-0.168,0.803-0.736,1.626-1.623,1.741c0.499,0.499,0.997,0.998,1.498,1.5c-0.076-1.435-0.152-2.871-0.229-4.307
				C451.182,333.94,448.183,333.925,448.286,335.857L448.286,335.857z"/>
		</g>
	</g>
</g>
<g id="Layer_2">
</g>
</svg>
